<svg xmlns="http://www.w3.org/2000/svg" width="180" height="180" viewBox="0 0 180 180">
  <circle cx="90" cy="90" r="90" fill="#f5f5f4"/>
  <path d="M54.84 109.37L54.84 38.85L77.13 38.85L77.13 109.37Q77.13 119.64 73.16 127.09Q69.19 134.54 62.40 138.59Q55.62 142.63 47.11 142.63Q38.39 142.63 31.57 139.18Q24.75 135.74 20.88 128.64Q17.02 121.54 17.02 110.64L39.38 110.64Q39.38 115.98 40.29 119.00Q41.20 122.03 42.96 123.29Q44.72 124.56 47.11 124.56Q49.64 124.56 51.36 122.77Q53.09 120.97 53.96 117.56Q54.84 114.15 54.84 109.37ZM140.63 106.84L162.84 106.84Q162.63 118.37 158.27 126.39Q153.91 134.40 145.90 138.52Q137.88 142.63 126.91 142.63Q118.20 142.63 111.45 139.64Q104.70 136.65 100.02 130.96Q95.34 125.26 92.99 116.96Q90.63 108.67 90.63 97.98L90.63 82.09Q90.63 71.47 93.16 63.11Q95.70 54.74 100.37 49.01Q105.05 43.28 111.80 40.32Q118.55 37.37 126.91 37.37Q138.38 37.37 146.18 41.66Q153.98 45.95 158.20 54.11Q162.42 62.26 162.98 73.86L140.70 73.86Q140.77 66.83 139.46 62.86Q138.16 58.89 135.14 57.23Q132.12 55.58 126.91 55.58Q123.19 55.58 120.52 56.95Q117.84 58.32 116.23 61.42Q114.61 64.51 113.84 69.57Q113.06 74.64 113.06 81.95L113.06 97.98Q113.06 105.29 113.70 110.32Q114.33 115.35 115.88 118.48Q117.42 121.61 120.09 123.01Q122.77 124.42 126.91 124.42Q131.55 124.42 134.58 122.98Q137.60 121.54 139.11 117.74Q140.63 113.94 140.63 106.84Z" fill="#1c1917"/>
</svg>
